PathFileType	4	(x/y/z)	S05_PSF_T02
DataRate	CameraRate	NumFrames	NumMarkers	Units	OrigDataRate	OrigDataStartFrame	OrigNumFrames
240	240	8	50	mm	240	277	442
Frame#	Time	Sternum			R.Acromium			L.Acromium			Top.Head			R.ASIS			L.ASIS			R.PSIS			L.PSIS			R.Great.Tro			L.Great.Tro			R.Iliac.Crest			L.Iliac.Crest			V.Sacral			R.Thigh.Upper.Post			R.Thigh.Lower.Ant			R.Thigh.Lower.Post			R.Thigh.Upper.Ant			R.Knee.Lat			R.Knee.Med			R.Shank.Upper.Post			R.Shank.Lower.Ant			R.Shank.Lower.Post			R.Shank.Upper.Ant			R.Ankle.Lat			R.Ankle.Med			R.Heel.Upper			R.Heel.Med			R.Heel.Lat			R.Toe.Lat			R.Toe.Med			R.Toe.Tip			L.Thigh.Upper.Post			L.Thigh.Lower.Ant			L.Thigh.Lower.Post			L.Thigh.Upper.Ant			L.Knee.Lat			L.Shank.Upper.Post			L.Shank.Lower.Ant			L.Shank.Lower.Post			L.Shank.Upper.Ant			L.Ankle.Lat			L.Ankle.Med			L.Heel.Upper			L.Heel.Med			L.Heel.Lat			L.Toe.Lat			L.Toe.Med			L.Toe.Tip			Cervical.Spine			Back			
		X1	Y1	Z1	X2	Y2	Z2	X3	Y3	Z3	X4	Y4	Z4	X5	Y5	Z5	X6	Y6	Z6	X7	Y7	Z7	X8	Y8	Z8	X9	Y9	Z9	X10	Y10	Z10	X11	Y11	Z11	X12	Y12	Z12	X13	Y13	Z13	X14	Y14	Z14	X15	Y15	Z15	X16	Y16	Z16	X17	Y17	Z17	X18	Y18	Z18	X19	Y19	Z19	X20	Y20	Z20	X21	Y21	Z21	X22	Y22	Z22	X23	Y23	Z23	X24	Y24	Z24	X25	Y25	Z25	X26	Y26	Z26	X27	Y27	Z27	X28	Y28	Z28	X29	Y29	Z29	X30	Y30	Z30	X31	Y31	Z31	X32	Y32	Z32	X33	Y33	Z33	X34	Y34	Z34	X35	Y35	Z35	X36	Y36	Z36	X37	Y37	Z37	X38	Y38	Z38	X39	Y39	Z39	X40	Y40	Z40	X41	Y41	Z41	X42	Y42	Z42	X43	Y43	Z43	X44	Y44	Z44	X45	Y45	Z45	X46	Y46	Z46	X47	Y47	Z47	X48	Y48	Z48	X49	Y49	Z49	X50	Y50	Z50	

277	1.15	-30.618	1241.7	302.11	-113.34	1501	461.45	-134.86	1519.7	133.57	-115.77	1812.7	281.46	-110.02	991.08	438.89	-79.515	994.65	189.39	-297.88	1019.1	325.04	-285.3	1011.6	234.72	-212	921.74	488.48	-149.54	911.23	102.98	-197.42	1079.2	465.07	-168.29	1072.2	128.9	-307.82	982.73	292.19	-220	699.84	477.35	-184.44	615.65	429.95	-253.96	619.1	451.89	-152.25	696.17	457.51	-293.68	526.61	427.94	-284.51	513.38	294.44	-436.87	316.73	411.09	-393.07	236.64	408.87	-454.88	243.79	391	-372.91	310.4	425.57	-434.28	135.49	388.06	-418.82	161.01	300.95	-513.83	97.811	323.89	-506.89	63.978	298.09	-510.89	70.319	362.41	-352.9	36.426	425.52	-311.41	37.017	306.61	-248.91	45.354	354.27	-81.554	680.47	103.46	13.943	634.3	135.54	-44.711	593.78	120.47	-15.559	719.66	121.07	1.5936	517.87	133.02	29.798	311.05	130.97	116.91	291.43	128.23	63.482	247.05	148.45	81.031	352.09	118.23	164.9	135.51	150.63	192.41	172.1	232.28	147.47	62.324	208.98	172.94	52.127	240.69	163.28	39.1	180.9	312.33	131.98	109.32	330.71	167.01	222.6	372.58	207.97	162.3	-168.74	1551	305.35	-288.6	1280.6	304.94
278	1.1542	-24.973	1240.7	301.63	-107.76	1500.2	460.77	-129.24	1518.6	132.83	-110.4	1811.8	280.6	-104.53	990.28	438.69	-73.5	993.69	189.24	-292.19	1018.3	324.25	-279.41	1010.7	233.95	-206.94	921.18	488.06	-143.27	910.34	102.64	-192.08	1078.4	464.58	-162.28	1071.2	128.4	-302.05	981.89	291.4	-215.64	699.41	477.28	-180.17	614.99	430.25	-249.77	618.71	451.88	-147.83	695.5	457.75	-289.89	526.32	427.98	-280.4	512.86	294.56	-434.61	317.49	411.12	-391.49	237.06	408.99	-453.22	244.71	391.11	-370.75	310.66	425.68	-433.54	136.19	388.16	-417.76	161.69	301	-513.34	99.034	324.02	-506.61	65.19	298.17	-510.53	71.462	362.51	-352.81	36.423	425.58	-311.31	37.031	306.68	-248.83	45.204	354.3	-75.049	679.8	103.49	20.372	633.68	135.92	-38.224	593.13	120.65	-9.0989	719.02	121.29	7.9449	517.17	133.1	35.802	310.25	130.97	122.86	290.45	128.57	69.271	246.17	148.53	87.151	351.18	118.49	170.44	134.57	150.96	197.69	171.02	232.77	152.65	61.449	209.14	178.07	51.173	240.97	168.57	38.256	181.14	317.95	130.93	110.17	335.97	165.78	223.57	378.06	206.78	163.47	-163.11	1550.1	304.62	-282.99	1279.7	304.27
279	1.1583	-19.311	1239.7	301.13	-102.16	1499.3	460.07	-123.6	1517.6	132.07	-105.01	1810.9	279.72	-99	989.5	438.49	-67.459	992.78	189.09	-286.47	1017.5	323.46	-273.5	1009.8	233.19	-201.84	920.63	487.63	-136.97	909.51	102.3	-186.71	1077.6	464.09	-156.27	1070.2	127.89	-296.25	981.08	290.61	-211.2	699	477.19	-175.82	614.35	430.54	-245.5	618.33	451.87	-143.35	694.86	457.98	-285.98	526.03	428.03	-276.18	512.33	294.69	-432.28	318.27	411.15	-389.85	237.52	409.11	-451.48	245.66	391.21	-368.5	310.94	425.79	-432.76	136.93	388.28	-416.65	162.4	301.07	-512.81	100.33	324.16	-506.29	66.479	298.25	-510.13	72.674	362.62	-352.72	36.422	425.64	-311.21	37.047	306.76	-248.75	45.058	354.32	-68.429	679.21	103.54	26.934	633.17	136.29	-31.597	592.59	120.86	-2.5261	718.48	121.49	14.397	516.52	133.18	41.619	309.48	130.99	128.58	289.36	128.94	74.765	245.28	148.64	93.142	350.21	118.78	175.48	133.49	151.32	202.55	169.73	233.3	157.2	60.504	209.33	182.6	50.092	241.26	173.19	37.32	181.4	323.02	129.5	111.03	340.79	164.1	224.55	383.14	205.08	164.64	-157.47	1549.3	303.88	-277.36	1278.8	303.6
280	1.1625	-13.629	1238.7	300.61	-96.544	1498.5	459.34	-117.96	1516.6	131.28	-99.604	1810.1	278.82	-93.438	988.75	438.27	-61.386	991.92	188.93	-280.72	1016.7	322.68	-267.57	1009	232.43	-196.7	920.09	487.19	-130.62	908.73	101.94	-181.3	1076.8	463.6	-150.25	1069.2	127.38	-290.42	980.28	289.83	-206.7	698.59	477.09	-171.38	613.74	430.84	-241.12	617.95	451.87	-138.8	694.24	458.2	-281.98	525.74	428.09	-271.84	511.79	294.83	-429.86	319.08	411.2	-388.15	238	409.24	-449.66	246.65	391.31	-366.18	311.24	425.92	-431.93	137.72	388.4	-415.49	163.16	301.16	-512.22	101.71	324.32	-505.94	67.85	298.35	-509.71	73.959	362.74	-352.62	36.425	425.71	-311.11	37.066	306.83	-248.67	44.915	354.34	-61.712	678.69	103.6	33.609	632.75	136.66	-24.853	592.13	121.09	4.1451	718.03	121.68	20.931	515.93	133.28	47.256	308.73	131.03	134.08	288.18	129.36	79.984	244.37	148.76	99.009	349.2	119.1	180.06	132.28	151.69	207	168.25	233.85	161.17	59.509	209.52	186.55	48.906	241.57	177.17	36.316	181.68	327.6	127.72	111.89	345.19	161.99	225.53	387.85	202.89	165.81	-151.81	1548.4	303.11	-271.71	1277.9	302.91
281	1.1667	-7.9266	1237.7	300.07	-90.905	1497.7	458.59	-112.31	1515.7	130.48	-94.179	1809.3	277.9	-87.839	988.02	438.03	-55.279	991.11	188.76	-274.95	1015.9	321.89	-261.6	1008.2	231.66	-191.53	919.56	486.73	-124.24	908	101.58	-175.85	1076.1	463.1	-144.21	1068.3	126.86	-284.55	979.51	289.04	-202.12	698.21	476.98	-166.84	613.14	431.12	-236.66	617.58	451.86	-134.19	693.66	458.41	-277.86	525.44	428.17	-267.38	511.24	295	-427.35	319.94	411.24	-386.38	238.52	409.39	-447.77	247.69	391.41	-363.79	311.57	426.05	-431.05	138.56	388.54	-414.26	163.95	301.26	-511.58	103.17	324.49	-505.56	69.312	298.45	-509.24	75.324	362.87	-352.52	36.431	425.78	-311.01	37.086	306.91	-248.59	44.777	354.37	-54.919	678.24	103.67	40.374	632.42	137.01	-18.018	591.74	121.35	10.898	717.66	121.85	27.525	515.38	133.38	52.725	308.01	131.09	139.39	286.92	129.81	84.949	243.44	148.89	104.75	348.14	119.44	184.23	130.97	152.07	211.1	166.61	234.42	164.61	58.491	209.73	189.98	47.641	241.88	180.57	35.267	181.97	331.71	125.62	112.73	349.22	159.5	226.51	392.24	200.26	166.97	-146.16	1547.6	302.32	-266.04	1277.1	302.22
282	1.1708	-2.2005	1236.8	299.51	-85.248	1496.9	457.81	-106.65	1514.7	129.64	-88.737	1808.5	276.97	-82.205	987.33	437.78	-49.135	990.36	188.58	-269.13	1015.2	321.1	-255.59	1007.4	230.9	-186.3	919.04	486.26	-117.82	907.33	101.21	-170.37	1075.3	462.6	-138.15	1067.4	126.33	-278.65	978.76	288.24	-197.47	697.84	476.85	-162.22	612.58	431.41	-232.1	617.22	451.85	-129.51	693.1	458.61	-273.64	525.16	428.25	-262.8	510.68	295.18	-424.76	320.84	411.3	-384.55	239.08	409.55	-445.81	248.78	391.5	-361.32	311.93	426.2	-430.11	139.45	388.69	-412.97	164.78	301.39	-510.87	104.73	324.68	-505.13	70.869	298.56	-508.74	76.772	363.01	-352.41	36.442	425.85	-310.91	37.11	306.98	-248.51	44.643	354.38	-48.07	677.85	103.76	47.204	632.15	137.36	-11.122	591.41	121.62	17.715	717.35	122	34.157	514.88	133.49	58.038	307.32	131.16	144.52	285.59	130.28	89.685	242.51	149.02	110.38	347.06	119.81	188.03	129.57	152.45	214.88	164.83	235	167.57	57.479	209.93	192.93	46.327	242.19	183.45	34.202	182.27	335.42	123.23	113.57	352.92	156.66	227.47	396.34	197.22	168.11	-140.49	1546.9	301.51	-260.35	1276.3	301.51
283	1.175	3.5511	1236	298.93	-79.572	1496.2	457.01	-100.99	1513.8	128.79	-83.275	1807.8	276.01	-76.534	986.66	437.52	-42.951	989.66	188.39	-263.28	1014.5	320.3	-249.55	1006.7	230.13	-181.03	918.55	485.77	-111.35	906.72	100.83	-164.83	1074.6	462.09	-132.07	1066.6	125.8	-272.72	978.04	287.45	-192.74	697.5	476.71	-157.51	612.04	431.7	-227.45	616.87	451.84	-124.76	692.58	458.8	-269.31	524.88	428.34	-258.09	510.12	295.38	-422.09	321.78	411.35	-382.65	239.68	409.72	-443.76	249.93	391.59	-358.77	312.32	426.37	-429.12	140.39	388.86	-411.61	165.66	301.54	-510.1	106.38	324.88	-504.65	72.528	298.67	-508.18	78.31	363.16	-352.3	36.457	425.92	-310.8	37.136	307.06	-248.44	44.512	354.4	-41.187	677.51	103.86	54.073	631.93	137.69	-4.1906	591.14	121.91	24.576	717.09	122.12	40.804	514.42	133.61	63.209	306.65	131.23	149.48	284.21	130.77	94.219	241.57	149.17	115.9	345.96	120.2	191.5	128.11	152.84	218.39	162.95	235.59	170.11	56.502	210.14	195.47	44.996	242.49	185.86	33.151	182.56	338.76	120.59	114.38	356.34	153.52	228.41	400.19	193.82	169.22	-134.81	1546.2	300.67	-254.63	1275.6	300.8
284	1.1792	9.3303	1235.1	298.34	-73.879	1495.5	456.19	-95.334	1513	127.91	-77.795	1807.1	275.04	-70.829	986.03	437.25	-36.726	989.02	188.2	-257.39	1013.8	319.51	-243.47	1006	229.36	-175.72	918.08	485.28	-104.84	906.15	100.45	-159.26	1074	461.57	-125.94	1065.8	125.27	-266.73	977.35	286.64	-187.94	697.18	476.55	-152.7	611.53	431.98	-222.71	616.53	451.83	-119.95	692.09	458.99	-264.87	524.61	428.44	-253.26	509.56	295.6	-419.32	322.77	411.41	-380.68	240.33	409.91	-441.63	251.13	391.67	-356.14	312.76	426.54	-428.06	141.39	389.04	-410.18	166.57	301.72	-509.25	108.14	325.1	-504.11	74.296	298.79	-507.58	79.943	363.32	-352.19	36.477	425.99	-310.7	37.167	307.14	-248.36	44.384	354.42	-34.292	677.22	103.98	60.956	631.75	138	2.746	590.92	122.22	31.462	716.87	122.21	47.445	513.99	133.73	68.25	306	131.32	154.29	282.81	131.28	98.577	240.64	149.31	121.32	344.85	120.61	194.71	126.6	153.23	221.67	160.99	236.18	172.3	55.59	210.35	197.63	43.68	242.79	187.88	32.144	182.86	341.79	117.75	115.16	359.51	150.12	229.32	403.84	190.12	170.29	-129.13	1545.5	299.81	-248.89	1274.9	300.08
